<svg xmlns="http://www.w3.org/2000/svg" viewBox="0 0 512 512" role="img" aria-label="ひらめき工房のアイコン">
  <defs>
    <linearGradient id="bg" x1="0" y1="0" x2="1" y2="1">
      <stop stop-color="#273173"/>
      <stop offset="1" stop-color="#10143c"/>
    </linearGradient>
    <linearGradient id="glow" x1="0" y1="0" x2="1" y2="1">
      <stop stop-color="#fff4a5"/>
      <stop offset="1" stop-color="#ffd04e"/>
    </linearGradient>
  </defs>
  <rect width="512" height="512" rx="118" fill="url(#bg)"/>
  <circle cx="93" cy="102" r="9" fill="#65dfde"/>
  <circle cx="422" cy="158" r="7" fill="#ffd866"/>
  <path d="m401 73 8 18 19 8-19 8-8 19-8-19-19-8 19-8z" fill="#65dfde"/>
  <path d="M145 245 111 107q-7-29 22-13l107 81M367 245l34-138q7-29-22-13l-107 81" fill="#f8e8ca" stroke="#202753" stroke-width="24" stroke-linejoin="round"/>
  <path d="m145 133 72 59-48 28zM367 133l-72 59 48 28z" fill="#65dfde"/>
  <path d="M127 271q0-128 129-128t129 128q0 122-129 132T127 271Z" fill="#fff1d6" stroke="#202753" stroke-width="24"/>
  <ellipse cx="207" cy="272" rx="15" ry="21" fill="#202753"/>
  <ellipse cx="305" cy="272" rx="15" ry="21" fill="#202753"/>
  <path d="M245 306q11 14 22 0M207 331q49 45 98 0" fill="none" stroke="#202753" stroke-width="18" stroke-linecap="round"/>
  <circle cx="164" cy="321" r="21" fill="#ff9b9b" opacity=".55"/>
  <circle cx="348" cy="321" r="21" fill="#ff9b9b" opacity=".55"/>
  <circle cx="388" cy="391" r="53" fill="url(#glow)" stroke="#202753" stroke-width="20"/>
  <path d="m388 345 13 31 33 14-33 13-13 33-14-33-31-13 31-14z" fill="#fff"/>
</svg>
